PathFileType	4	(x/y/z)	S05_PSF_T03
DataRate	CameraRate	NumFrames	NumMarkers	Units	OrigDataRate	OrigDataStartFrame	OrigNumFrames
240	240	6	50	mm	240	1	410
Frame#	Time	Sternum			R.Acromium			L.Acromium			Top.Head			R.ASIS			L.ASIS			R.PSIS			L.PSIS			R.Great.Tro			L.Great.Tro			R.Iliac.Crest			L.Iliac.Crest			V.Sacral			R.Thigh.Upper.Post			R.Thigh.Lower.Ant			R.Thigh.Lower.Post			R.Thigh.Upper.Ant			R.Knee.Lat			R.Knee.Med			R.Shank.Upper.Post			R.Shank.Lower.Ant			R.Shank.Lower.Post			R.Shank.Upper.Ant			R.Ankle.Lat			R.Ankle.Med			R.Heel.Upper			R.Heel.Med			R.Heel.Lat			R.Toe.Lat			R.Toe.Med			R.Toe.Tip			L.Thigh.Upper.Post			L.Thigh.Lower.Ant			L.Thigh.Lower.Post			L.Thigh.Upper.Ant			L.Knee.Lat			L.Shank.Upper.Post			L.Shank.Lower.Ant			L.Shank.Lower.Post			L.Shank.Upper.Ant			L.Ankle.Lat			L.Ankle.Med			L.Heel.Upper			L.Heel.Med			L.Heel.Lat			L.Toe.Lat			L.Toe.Med			L.Toe.Tip			Cervical.Spine			Back			
		X1	Y1	Z1	X2	Y2	Z2	X3	Y3	Z3	X4	Y4	Z4	X5	Y5	Z5	X6	Y6	Z6	X7	Y7	Z7	X8	Y8	Z8	X9	Y9	Z9	X10	Y10	Z10	X11	Y11	Z11	X12	Y12	Z12	X13	Y13	Z13	X14	Y14	Z14	X15	Y15	Z15	X16	Y16	Z16	X17	Y17	Z17	X18	Y18	Z18	X19	Y19	Z19	X20	Y20	Z20	X21	Y21	Z21	X22	Y22	Z22	X23	Y23	Z23	X24	Y24	Z24	X25	Y25	Z25	X26	Y26	Z26	X27	Y27	Z27	X28	Y28	Z28	X29	Y29	Z29	X30	Y30	Z30	X31	Y31	Z31	X32	Y32	Z32	X33	Y33	Z33	X34	Y34	Z34	X35	Y35	Z35	X36	Y36	Z36	X37	Y37	Z37	X38	Y38	Z38	X39	Y39	Z39	X40	Y40	Z40	X41	Y41	Z41	X42	Y42	Z42	X43	Y43	Z43	X44	Y44	Z44	X45	Y45	Z45	X46	Y46	Z46	X47	Y47	Z47	X48	Y48	Z48	X49	Y49	Z49	X50	Y50	Z50	

1	0	NaN	NaN	NaN	-1578.9	1498.7	459.19	-1590.8	1512.4	132.93	-1571.9	1807.1	283	NaN	NaN	NaN	NaN	NaN	NaN	NaN	NaN	NaN	NaN	NaN	NaN	-1667.9	918.71	491.2	-1580.8	901.99	106.84	-1654.7	1075.1	465.49	-1605.1	1062.5	131.3	-1749.4	971.74	287.81	-1680.3	699.64	483.73	NaN	NaN	NaN	-1701.3	614.47	457.85	-1599.7	691.68	466.79	-1741.1	519.16	434.79	NaN	NaN	NaN	-1895.9	320.4	414.32	-1860.1	237.72	413.76	-1926.7	253.32	396.24	-1834.7	309.85	431.08	-1909.1	142.1	392.39	-1889.6	169.07	304.29	-1992.4	107	329.3	-1983.9	71.671	303.45	-1988.9	78.716	367.14	-1829.8	43.214	429.88	-1788.6	44.146	310.42	-1725	52.973	358.05	-1499	677.1	110.23	-1401.5	635.89	146.13	-1458.2	592.53	127.55	-1434.5	719.91	131.26	-1413.1	517.94	138.49	-1380.8	311	135.94	-1293.6	291.7	136.02	-1347.5	246.74	152.93	-1328.2	352.87	124.95	-1247	136.38	158.34	-1223.6	171.47	243.27	-1267.1	61.114	213.65	-1241.7	50.299	245.74	-1250.3	40.04	186.16	-1102.5	134.81	119.5	-1084.4	165.04	235.13	-1040.6	207.73	176.67	-1631.9	1544.1	302.04	-1745.1	1269.5	300.55
2	0.0041667	NaN	NaN	NaN	-1573.6	1498.3	458.51	-1585.7	1511.7	132.22	-1566.9	1806.6	282.11	NaN	NaN	NaN	NaN	NaN	NaN	NaN	NaN	NaN	NaN	NaN	NaN	-1662.6	918.29	490.54	-1574.5	901.61	106.46	-1649.3	1074.6	464.91	-1599.2	1062	130.76	-1743.5	971.24	286.94	-1675.8	699.38	483.34	NaN	NaN	NaN	-1696.5	614.09	457.83	-1594.6	691.37	466.6	-1736.7	519.21	435.01	NaN	NaN	NaN	-1893.4	321.58	414.45	-1858.1	238.49	413.96	-1924.5	254.62	396.32	-1832	310.35	431.28	-1908	143.31	392.58	-1888.3	170.06	304.52	-1991.4	109.05	329.52	-1983.3	73.75	303.55	-1988.1	80.689	367.22	-1829.7	43.254	429.96	-1788.4	44.226	310.53	-1724.9	52.779	358.17	-1492.6	676.8	110.32	-1395.2	635.67	146.47	-1452.2	592.43	127.88	-1428.1	719.65	131.32	-1407	517.49	138.7	-1375.9	310.61	135.44	-1289.5	290.17	136.37	-1344	245.72	152.89	-1323.4	351.59	125.32	-1244.7	134.49	158.53	-1221.5	169.06	243.68	-1265.9	59.677	213.71	-1240.9	48.401	245.73	-1249.8	38.725	185.93	-1100	131.56	120.39	-1082.3	161.18	236.04	-1037.9	203.63	177.98	-1626.7	1543.5	301.34	-1739.7	1268.8	299.98
3	0.0083333	NaN	NaN	NaN	-1568.1	1497.8	457.8	-1580.4	1511	131.47	-1561.6	1806.1	281.19	NaN	NaN	NaN	NaN	NaN	NaN	NaN	NaN	NaN	NaN	NaN	NaN	-1657.1	917.86	489.85	-1567.9	901.24	106.06	-1643.7	1074	464.3	-1592.9	1061.4	130.2	-1737.3	970.72	286.03	-1670.9	699.11	482.95	NaN	NaN	NaN	-1691.5	613.7	457.82	-1589.2	691.05	466.43	-1732	519.25	435.24	NaN	NaN	NaN	-1890.7	322.84	414.6	-1856.1	239.32	414.19	-1922.2	255.99	396.4	-1829.2	310.9	431.49	-1906.7	144.6	392.79	-1886.8	171.11	304.77	-1990.4	111.25	329.75	-1982.6	75.975	303.66	-1987.3	82.796	367.31	-1829.6	43.303	430.04	-1788.3	44.313	310.64	-1724.8	52.584	358.29	-1486	676.49	110.41	-1388.6	635.43	146.81	-1446	592.3	128.2	-1421.4	719.35	131.37	-1400.7	517.01	138.91	-1370.8	310.19	134.98	-1285.1	288.62	136.73	-1340.3	244.66	152.87	-1318.6	350.28	125.7	-1242.3	132.56	158.72	-1219.2	166.6	244.1	-1264.7	58.285	213.78	-1239.9	46.523	245.73	-1249.3	37.438	185.72	-1097.4	128.19	121.29	-1080	157.17	236.96	-1035	199.35	179.3	-1621.3	1543	300.6	-1734.1	1268.1	299.38
4	0.0125	NaN	NaN	NaN	-1562.4	1497.3	457.05	-1574.8	1510.3	130.68	-1556.1	1805.6	280.22	NaN	NaN	NaN	NaN	NaN	NaN	NaN	NaN	NaN	NaN	NaN	NaN	-1651.3	917.43	489.13	-1561.1	900.87	105.66	-1637.9	1073.4	463.66	-1586.4	1060.8	129.61	-1730.9	970.2	285.09	-1665.8	698.82	482.56	NaN	NaN	NaN	-1686.2	613.31	457.82	-1583.7	690.74	466.26	-1727.2	519.28	435.51	NaN	NaN	NaN	-1887.9	324.18	414.77	-1853.9	240.23	414.44	-1919.7	257.44	396.48	-1826.3	311.48	431.73	-1905.4	145.97	393.02	-1885.3	172.23	305.05	-1989.3	113.58	330	-1981.9	78.347	303.76	-1986.5	85.034	367.42	-1829.4	43.362	430.13	-1788.1	44.406	310.75	-1724.7	52.392	358.41	-1479.2	676.17	110.5	-1381.8	635.16	147.14	-1439.6	592.15	128.53	-1414.6	719.04	131.39	-1394.3	516.52	139.12	-1365.7	309.72	134.56	-1280.6	287.04	137.11	-1336.4	243.58	152.87	-1313.5	348.94	126.09	-1239.9	130.63	158.92	-1216.8	164.12	244.52	-1263.4	56.969	213.84	-1239	44.697	245.74	-1248.6	36.206	185.53	-1094.7	124.72	122.19	-1077.7	153.04	237.86	-1032	194.92	180.6	-1615.7	1542.4	299.82	-1728.2	1267.5	298.75
5	0.016667	NaN	NaN	NaN	-1556.5	1496.8	456.28	-1569.1	1509.6	129.86	-1550.4	1805.1	279.23	NaN	NaN	NaN	NaN	NaN	NaN	NaN	NaN	NaN	NaN	NaN	NaN	-1645.4	917	488.39	-1554	900.51	105.24	-1631.9	1072.8	462.99	-1579.8	1060.3	128.99	-1724.3	969.67	284.11	-1660.4	698.52	482.18	NaN	NaN	NaN	-1680.8	612.92	457.83	-1577.9	690.44	466.11	-1722.2	519.29	435.79	NaN	NaN	NaN	-1884.9	325.6	414.95	-1851.7	241.2	414.71	-1917.1	258.96	396.57	-1823.2	312.12	431.99	-1904	147.42	393.27	-1883.6	173.42	305.35	-1988	116.06	330.26	-1981.1	80.869	303.87	-1985.6	87.404	367.53	-1829.3	43.435	430.21	-1787.9	44.507	310.86	-1724.6	52.205	358.53	-1472.3	675.84	110.58	-1374.9	634.85	147.44	-1433.1	591.98	128.85	-1407.6	718.71	131.4	-1387.7	516.01	139.32	-1360.5	309.23	134.2	-1276.1	285.46	137.48	-1332.5	242.5	152.9	-1308.4	347.61	126.5	-1237.3	128.73	159.13	-1214.2	161.64	244.94	-1262	55.759	213.9	-1238	42.956	245.76	-1248	35.055	185.38	-1092	121.16	123.07	-1075.2	148.81	238.74	-1028.9	190.36	181.86	-1609.9	1541.8	299.01	-1722.2	1266.8	298.08
6	0.020833	NaN	NaN	NaN	-1550.6	1496.4	455.48	-1563.3	1508.9	129	-1544.7	1804.6	278.2	NaN	NaN	NaN	NaN	NaN	NaN	NaN	NaN	NaN	NaN	NaN	NaN	-1639.4	916.58	487.64	-1546.8	900.18	104.82	-1625.7	1072.3	462.3	-1572.9	1059.7	128.36	-1717.6	969.16	283.12	-1654.7	698.21	481.8	NaN	NaN	NaN	-1675.2	612.53	457.85	-1572	690.16	465.98	-1717	519.29	436.11	NaN	NaN	NaN	-1881.8	327.1	415.14	-1849.3	242.23	415	-1914.3	260.54	396.65	-1819.9	312.8	432.27	-1902.5	148.95	393.54	-1881.8	174.67	305.67	-1986.7	118.68	330.53	-1980.2	83.544	303.98	-1984.6	89.908	367.66	-1829.2	43.525	430.3	-1787.7	44.617	310.97	-1724.4	52.025	358.66	-1465.3	675.52	110.66	-1368	634.52	147.72	-1426.5	591.77	129.15	-1400.5	718.35	131.39	-1381.1	515.49	139.5	-1355.3	308.71	133.91	-1271.4	283.9	137.86	-1328.6	241.42	152.95	-1303.3	346.28	126.9	-1234.7	126.86	159.33	-1211.6	159.2	245.34	-1260.7	54.681	213.96	-1237	41.328	245.79	-1247.2	34.005	185.27	-1089.3	117.54	123.93	-1072.7	144.51	239.58	-1025.7	185.69	183.05	-1604	1541.3	298.17	-1716	1266.1	297.39
